<svg id="Layer_1" enable-background="new 0 0 64 64" height="512" viewBox="0 0 64 64" width="512" xmlns="http://www.w3.org/2000/svg"><g><circle cx="32" cy="32" fill="#2799ff" r="32"/><g fill="#fff"><path d="m25.9 44.8c1.5 4.6 3.7 7.6 6.1 7.6 2.5 0 4.7-3.1 6.2-7.8l-6-2.2z"/><path d="m38.1 19.1c-1.5-4.6-3.7-7.6-6.1-7.6-2.5 0-4.7 3.1-6.2 7.8 1.9.5 4 1.3 6 2.2 2.2-1 4.3-1.8 6.3-2.4z"/><path d="m27.4 40c-1-.6-2-1.2-2.9-1.8.2 1.9.6 3.7 1 5.3 1.6-.5 3.3-1.1 5-1.8-1-.5-2.1-1.1-3.1-1.7z"/><path d="m36.6 24c1 .6 2 1.2 2.9 1.8-.2-1.9-.6-3.7-1-5.3-1.6.5-3.3 1.1-5 1.8 1 .5 2.1 1.1 3.1 1.7z"/><path d="m18.1 33.1c-3.4 3.8-4.9 7.4-3.6 9.5 1 1.7 3.8 2.3 7.7 1.7.6-.1 1.3-.2 1.9-.4-.6-2-1-4.3-1.2-6.7-1.7-1.3-3.4-2.7-4.8-4.1z"/><path d="m45.9 30.8c3.4-3.8 4.9-7.3 3.6-9.5-.8-1.2-2.5-1.9-4.9-1.9-.9 0-1.8.1-2.8.2-.6.1-1.3.2-1.9.4.6 2 1 4.3 1.2 6.7 1.7 1.4 3.4 2.8 4.8 4.1z"/><path d="m44.9 31.9c-1.1-1.1-2.4-2.2-3.8-3.2.1 1.1.1 2.2.1 3.4 0 1.1 0 2.2-.1 3.2 1.5-1.2 2.7-2.3 3.8-3.4z"/><path d="m33.7 41.7c1.6.7 3.3 1.3 4.8 1.7.4-1.6.8-3.3 1-5.2-.9.6-1.8 1.2-2.7 1.8-1 .5-2.1 1.1-3.1 1.7z"/><path d="m19.1 32.1c1.1 1.1 2.4 2.2 3.8 3.2-.1-1.1-.1-2.2-.1-3.4 0-1.1 0-2.2.1-3.2-1.5 1.2-2.7 2.3-3.8 3.4z"/><path d="m30.3 22.3c-1.6-.7-3.3-1.2-4.8-1.7l-1 5.2c.9-.6 1.8-1.2 2.7-1.8 1-.5 2.1-1.1 3.1-1.7z"/><path d="m45.9 32.8c-1.4 1.4-3 2.9-4.9 4.2-.2 2.4-.6 4.6-1.1 6.6.7.2 1.4.3 2.1.4 3.9.5 6.7-.1 7.7-1.8 1.3-2.1-.4-5.7-3.8-9.4z"/><path d="m23 26.9c.2-2.4.6-4.6 1.1-6.6-.7-.2-1.4-.3-2.1-.4-3.9-.5-6.7.1-7.7 1.8-1.2 2.2.4 5.7 3.8 9.4 1.4-1.4 3.1-2.8 4.9-4.2z"/><path d="m29.4 32c0 1.4 1.2 2.6 2.6 2.6s2.6-1.2 2.6-2.6-1.2-2.6-2.6-2.6-2.6 1.2-2.6 2.6z"/></g></g></svg>